<svg width="141" height="72" viewBox="0 0 141 72" fill="none" xmlns="http://www.w3.org/2000/svg">
<g filter="url(#filter0_d)">
<rect width="141" height="72" fill="white"/>
<rect x="0.5" y="0.5" width="140" height="71" fill="#00887A" stroke="black"/>
<path d="M4.24219 20.1602H12.3281V22H1.98047V4.9375H4.24219V20.1602ZM13.9805 15.543C13.9805 14.3008 14.2227 13.1836 14.707 12.1914C15.1992 11.1992 15.8789 10.4336 16.7461 9.89453C17.6211 9.35547 18.6172 9.08594 19.7344 9.08594C21.4609 9.08594 22.8555 9.68359 23.918 10.8789C24.9883 12.0742 25.5234 13.6641 25.5234 15.6484V15.8008C25.5234 17.0352 25.2852 18.1445 24.8086 19.1289C24.3398 20.1055 23.6641 20.8672 22.7812 21.4141C21.9062 21.9609 20.8984 22.2344 19.7578 22.2344C18.0391 22.2344 16.6445 21.6367 15.5742 20.4414C14.5117 19.2461 13.9805 17.6641 13.9805 15.6953V15.543ZM16.1602 15.8008C16.1602 17.207 16.4844 18.3359 17.1328 19.1875C17.7891 20.0391 18.6641 20.4648 19.7578 20.4648C20.8594 20.4648 21.7344 20.0352 22.3828 19.1758C23.0312 18.3086 23.3555 17.0977 23.3555 15.543C23.3555 14.1523 23.0234 13.0273 22.3594 12.168C21.7031 11.3008 20.8281 10.8672 19.7344 10.8672C18.6641 10.8672 17.8008 11.293 17.1445 12.1445C16.4883 12.9961 16.1602 14.2148 16.1602 15.8008ZM27.7266 15.5547C27.7266 13.5781 28.1836 12.0078 29.0977 10.8438C30.0117 9.67188 31.2227 9.08594 32.7305 9.08594C34.2773 9.08594 35.4844 9.63281 36.3516 10.7266L36.457 9.32031H38.4375V21.6953C38.4375 23.3359 37.9492 24.6289 36.9727 25.5742C36.0039 26.5195 34.6992 26.9922 33.0586 26.9922C32.1445 26.9922 31.25 26.7969 30.375 26.4062C29.5 26.0156 28.832 25.4805 28.3711 24.8008L29.4961 23.5C30.4258 24.6484 31.5625 25.2227 32.9062 25.2227C33.9609 25.2227 34.7812 24.9258 35.3672 24.332C35.9609 23.7383 36.2578 22.9023 36.2578 21.8242V20.7344C35.3906 21.7344 34.207 22.2344 32.707 22.2344C31.2227 22.2344 30.0195 21.6367 29.0977 20.4414C28.1836 19.2461 27.7266 17.6172 27.7266 15.5547ZM29.9062 15.8008C29.9062 17.2305 30.1992 18.3555 30.7852 19.1758C31.3711 19.9883 32.1914 20.3945 33.2461 20.3945C34.6133 20.3945 35.6172 19.7734 36.2578 18.5312V12.7422C35.5938 11.5312 34.5977 10.9258 33.2695 10.9258C32.2148 10.9258 31.3906 11.3359 30.7969 12.1562C30.2031 12.9766 29.9062 14.1914 29.9062 15.8008ZM44.0742 22H41.9062V9.32031H44.0742V22ZM41.7305 5.95703C41.7305 5.60547 41.8359 5.30859 42.0469 5.06641C42.2656 4.82422 42.5859 4.70312 43.0078 4.70312C43.4297 4.70312 43.75 4.82422 43.9688 5.06641C44.1875 5.30859 44.2969 5.60547 44.2969 5.95703C44.2969 6.30859 44.1875 6.60156 43.9688 6.83594C43.75 7.07031 43.4297 7.1875 43.0078 7.1875C42.5859 7.1875 42.2656 7.07031 42.0469 6.83594C41.8359 6.60156 41.7305 6.30859 41.7305 5.95703ZM49.6055 9.32031L49.6758 10.9141C50.6445 9.69531 51.9102 9.08594 53.4727 9.08594C56.1523 9.08594 57.5039 10.5977 57.5273 13.6211V22H55.3594V13.6094C55.3516 12.6953 55.1406 12.0195 54.7266 11.582C54.3203 11.1445 53.6836 10.9258 52.8164 10.9258C52.1133 10.9258 51.4961 11.1133 50.9648 11.4883C50.4336 11.8633 50.0195 12.3555 49.7227 12.9648V22H47.5547V9.32031H49.6055Z" transform="translate(40 18)" fill="#F2F2F2"/>
</g>
<defs>
<filter id="filter0_d" x="-4" y="0" width="149" height="80" filterUnits="userSpaceOnUse" color-interpolation-filters="sRGB">
<feFlood flood-opacity="0" result="BackgroundImageFix"/>
<feColorMatrix in="SourceAlpha" type="matrix" values="0 0 0 0 0 0 0 0 0 0 0 0 0 0 0 0 0 0 255 0"/>
<feOffset dy="4"/>
<feGaussianBlur stdDeviation="2"/>
<feColorMatrix type="matrix" values="0 0 0 0 0 0 0 0 0 0 0 0 0 0 0 0 0 0 0.25 0"/>
<feBlend mode="normal" in2="BackgroundImageFix" result="effect1_dropShadow"/>
<feBlend mode="normal" in="SourceGraphic" in2="effect1_dropShadow" result="shape"/>
</filter>
</defs>
</svg>
